<svg width="476" height="117" viewBox="0 0 476 117" fill="none" xmlns="http://www.w3.org/2000/svg">
<g filter="url(#filter0_i_23_66)">
<path d="M12.7241 91.64C9.04406 91.64 6.00406 90.52 3.60406 88.28C1.20406 86.04 0.00406268 83.2 0.00406268 79.76V16.28C0.00406268 12.76 1.16406 9.84 3.48406 7.51999C5.80406 5.12 8.84406 3.92 12.6041 3.92C16.6041 3.92 19.7241 5.12 21.9641 7.51999C24.2041 9.84 25.3241 12.68 25.3241 16.04V38.24H47.6441V16.28C47.6441 12.76 48.8041 9.84 51.1241 7.51999C53.4441 5.12 56.5641 3.92 60.4841 3.92C64.4041 3.92 67.4841 5.12 69.7241 7.51999C71.9641 9.84 73.0841 12.68 73.0841 16.04V79.76C73.0841 83.2 71.8841 86.04 69.4841 88.28C67.1641 90.52 64.2441 91.64 60.7241 91.64C56.8841 91.64 53.7241 90.52 51.2441 88.28C48.8441 86.04 47.6441 83.2 47.6441 79.76V55.88H25.3241V79.76C25.3241 83.2 24.1241 86.04 21.7241 88.28C19.4041 90.52 16.4041 91.64 12.7241 91.64ZM110.269 92.24C100.909 92.24 93.4291 89.48 87.8291 83.96C82.3091 78.36 79.5491 70.48 79.5491 60.32C79.5491 54.08 80.8291 48.6 83.3891 43.88C85.9491 39.16 89.5091 35.48 94.0691 32.84C98.7091 30.12 104.109 28.76 110.269 28.76C117.149 28.76 122.869 30.12 127.429 32.84C131.989 35.48 135.389 39.16 137.629 43.88C139.949 48.6 141.109 54.08 141.109 60.32C141.109 70.48 138.549 78.36 133.429 83.96C128.389 89.48 120.669 92.24 110.269 92.24ZM93.8291 58.28C93.8291 60.76 95.0691 62.52 97.5491 63.56C100.029 64.52 104.269 65 110.269 65C116.269 65 120.509 64.52 122.989 63.56C125.469 62.52 126.709 60.76 126.709 58.28C126.709 55.88 125.469 54.2 122.989 53.24C120.509 52.28 116.269 51.8 110.269 51.8C104.269 51.8 100.029 52.28 97.5491 53.24C95.0691 54.2 93.8291 55.88 93.8291 58.28ZM158.583 92C155.063 92 152.223 90.96 150.063 88.88C147.983 86.72 146.943 84.08 146.943 80.96V41.24C146.943 37.88 147.943 35.04 149.943 32.72C151.943 30.4 154.823 29.24 158.583 29.24C162.263 29.24 165.063 30.4 166.983 32.72C168.903 35.04 169.863 37.96 169.863 41.48V47.48H172.023C172.023 42.92 172.823 39.32 174.423 36.68C176.103 34.04 178.223 32.16 180.783 31.04C183.343 29.84 185.903 29.24 188.463 29.24C194.623 29.24 199.143 31.48 202.023 35.96C204.903 40.36 206.343 46.64 206.343 54.8V80.96C206.343 84.08 205.303 86.72 203.223 88.88C201.143 90.96 198.343 92 194.823 92C191.223 92 188.343 90.96 186.183 88.88C184.103 86.72 183.063 84.08 183.063 80.96V59.72C183.063 56.84 182.503 54.6 181.383 53C180.343 51.4 178.783 50.6 176.703 50.6C174.303 50.6 172.543 51.48 171.423 53.24C170.383 55 169.863 57.24 169.863 59.96V80.96C169.863 84.08 168.863 86.72 166.863 88.88C164.863 90.96 162.103 92 158.583 92ZM240.528 116.72C235.648 116.72 231.488 116.2 228.048 115.16C224.688 114.12 221.448 112.52 218.328 110.36C215.608 108.44 213.688 105.76 212.568 102.32C211.448 98.88 212.008 95.4 214.248 91.88C215.688 89.72 217.288 88.24 219.048 87.44C220.888 86.64 222.648 86.32 224.328 86.48C226.088 86.56 227.608 86.92 228.888 87.56C231.688 88.92 233.848 89.92 235.368 90.56C236.968 91.12 238.768 91.4 240.768 91.4C243.728 91.4 246.208 90.36 248.208 88.28C250.288 86.2 251.328 83.28 251.328 79.52V69.8H249.168C248.608 74.04 246.968 77.4 244.248 79.88C241.608 82.28 237.968 83.48 233.328 83.48C229.808 83.48 226.368 82.6 223.008 80.84C219.648 79.08 216.888 76.28 214.728 72.44C212.568 68.6 211.488 63.52 211.488 57.2C211.488 47.92 213.528 41 217.608 36.44C221.688 31.88 226.968 29.6 233.448 29.6C237.928 29.6 241.768 31.12 244.968 34.16C248.168 37.12 249.768 41.28 249.768 46.64L250.128 46.52V39.8C250.128 37 251.008 34.56 252.768 32.48C254.608 30.32 257.448 29.24 261.288 29.24C265.368 29.24 268.288 30.32 270.048 32.48C271.888 34.56 272.808 37 272.808 39.8L272.928 77.6C273.008 85.92 271.968 93 269.808 98.84C267.728 104.68 264.288 109.12 259.488 112.16C254.768 115.2 248.448 116.72 240.528 116.72ZM231.648 55.16C231.648 59.48 234.528 61.64 240.288 61.64C244.048 61.64 246.688 61.12 248.208 60.08C249.728 59.04 250.488 57.4 250.488 55.16C250.488 52.84 249.688 51.24 248.088 50.36C246.568 49.48 243.928 49.04 240.168 49.04C237.448 49.04 235.328 49.48 233.808 50.36C232.368 51.24 231.648 52.84 231.648 55.16ZM309.853 92.36C303.613 92.36 298.093 91.08 293.293 88.52C288.493 85.88 284.733 82.16 282.013 77.36C279.293 72.56 277.933 66.92 277.933 60.44C277.933 53.96 279.293 48.32 282.013 43.52C284.733 38.72 288.493 35 293.293 32.36C298.173 29.72 303.773 28.4 310.093 28.4C315.053 28.4 319.413 28.92 323.173 29.96C327.013 31 330.013 32.56 332.173 34.64C334.413 36.72 335.533 39.32 335.533 42.44C335.533 46.2 334.573 49.16 332.653 51.32C330.733 53.4 327.973 54.44 324.373 54.44C321.973 54.44 319.573 54.08 317.173 53.36C314.853 52.64 311.853 52.28 308.173 52.28C305.133 52.28 302.573 52.76 300.493 53.72C298.413 54.68 297.373 56.44 297.373 59C297.373 61.64 298.413 63.56 300.493 64.76C302.573 65.88 305.133 66.44 308.173 66.44C310.653 66.44 312.733 66.2 314.413 65.72C316.093 65.24 317.693 64.76 319.213 64.28C320.733 63.8 322.453 63.56 324.373 63.56C328.453 63.56 331.453 64.76 333.373 67.16C335.373 69.48 336.373 72.48 336.373 76.16C336.373 79.28 335.213 82.08 332.893 84.56C330.573 86.96 327.413 88.88 323.413 90.32C319.413 91.68 314.893 92.36 309.853 92.36ZM340.643 15.32C340.643 11.88 341.683 9.12 343.763 7.04C345.923 4.88 348.883 3.8 352.643 3.8C356.643 3.8 359.603 4.84 361.523 6.91999C363.523 9 364.523 11.76 364.523 15.2C364.523 18.56 363.523 21.28 361.523 23.36C359.603 25.36 356.643 26.36 352.643 26.36C348.723 26.36 345.723 25.36 343.643 23.36C341.643 21.28 340.643 18.6 340.643 15.32ZM352.643 92C348.883 92 346.083 90.96 344.243 88.88C342.403 86.8 341.483 84.2 341.483 81.08V40.04C341.483 36.6 342.403 33.88 344.243 31.88C346.083 29.88 348.883 28.88 352.643 28.88C356.403 28.88 359.203 29.88 361.043 31.88C362.963 33.88 363.923 36.52 363.923 39.8V81.08C363.923 84.2 362.923 86.8 360.923 88.88C359.003 90.96 356.243 92 352.643 92ZM399.605 92.24C390.245 92.24 382.765 89.48 377.165 83.96C371.645 78.36 368.885 70.48 368.885 60.32C368.885 54.08 370.165 48.6 372.725 43.88C375.285 39.16 378.845 35.48 383.405 32.84C388.045 30.12 393.445 28.76 399.605 28.76C406.485 28.76 412.205 30.12 416.765 32.84C421.325 35.48 424.725 39.16 426.965 43.88C429.285 48.6 430.445 54.08 430.445 60.32C430.445 70.48 427.885 78.36 422.765 83.96C417.725 89.48 410.005 92.24 399.605 92.24ZM383.165 58.28C383.165 60.76 384.405 62.52 386.885 63.56C389.365 64.52 393.605 65 399.605 65C405.605 65 409.845 64.52 412.325 63.56C414.805 62.52 416.045 60.76 416.045 58.28C416.045 55.88 414.805 54.2 412.325 53.24C409.845 52.28 405.605 51.8 399.605 51.8C393.605 51.8 389.365 52.28 386.885 53.24C384.405 54.2 383.165 55.88 383.165 58.28ZM442.639 17.36C442.559 14.48 443.039 11.8 444.079 9.32C445.199 6.76 446.999 4.72 449.479 3.2C451.959 1.6 455.159 0.799994 459.079 0.799994C463.079 0.799994 466.279 1.6 468.679 3.2C471.159 4.72 472.919 6.76 473.959 9.32C475.079 11.8 475.599 14.48 475.519 17.36C475.439 20 475.039 22.48 474.319 24.8C473.599 27.12 472.759 29.52 471.799 32C470.839 34.4 469.959 37.08 469.159 40.04C468.359 42.92 467.839 46.24 467.599 50C467.359 53.12 466.479 55.44 464.959 56.96C463.439 58.4 461.479 59.12 459.079 59.12C456.599 59.12 454.599 58.4 453.079 56.96C451.559 55.52 450.719 53.2 450.559 50C450.319 46.24 449.799 42.92 448.999 40.04C448.199 37.08 447.319 34.4 446.359 32C445.399 29.52 444.559 27.12 443.839 24.8C443.119 22.48 442.719 20 442.639 17.36ZM459.079 94.28C454.359 94.28 450.679 93.04 448.039 90.56C445.399 88 444.079 84.64 444.079 80.48C444.079 76.24 445.399 72.8 448.039 70.16C450.759 67.52 454.439 66.2 459.079 66.2C463.559 66.2 467.119 67.52 469.759 70.16C472.399 72.72 473.719 76.12 473.719 80.36C473.719 84.52 472.439 87.88 469.879 90.44C467.319 93 463.719 94.28 459.079 94.28Z" fill="white"/>
</g>
<defs>
<filter id="filter0_i_23_66" x="0.00402832" y="0.799988" width="475.635" height="119.92" filterUnits="userSpaceOnUse" color-interpolation-filters="sRGB">
<feFlood flood-opacity="0" result="BackgroundImageFix"/>
<feBlend mode="normal" in="SourceGraphic" in2="BackgroundImageFix" result="shape"/>
<feColorMatrix in="SourceAlpha" type="matrix" values="0 0 0 0 0 0 0 0 0 0 0 0 0 0 0 0 0 0 127 0" result="hardAlpha"/>
<feOffset dy="4"/>
<feGaussianBlur stdDeviation="2"/>
<feComposite in2="hardAlpha" operator="arithmetic" k2="-1" k3="1"/>
<feColorMatrix type="matrix" values="0 0 0 0 0 0 0 0 0 0 0 0 0 0 0 0 0 0 0.25 0"/>
<feBlend mode="normal" in2="shape" result="effect1_innerShadow_23_66"/>
</filter>
</defs>
</svg>
